<?xml version="1.0" encoding="UTF-8" standalone="no"?>
<svg
   xmlns:dc="http://purl.org/dc/elements/1.1/"
   xmlns:cc="http://creativecommons.org/ns#"
   xmlns:rdf="http://www.w3.org/1999/02/22-rdf-syntax-ns#"
   xmlns:svg="http://www.w3.org/2000/svg"
   xmlns="http://www.w3.org/2000/svg"
   viewBox="0 0 184 199.66667"
   height="199.66667"
   width="184"
   xml:space="preserve"
   id="svg2"
   version="1.1"><metadata
     id="metadata8"><rdf:RDF><cc:Work
         rdf:about=""><dc:format>image/svg+xml</dc:format><dc:type
           rdf:resource="http://purl.org/dc/dcmitype/StillImage" /></cc:Work></rdf:RDF></metadata><defs
     id="defs6" /><g
     transform="matrix(1.3333333,0,0,-1.3333333,0,199.66667)"
     id="g10"><g
       transform="translate(56.8662,71)"
       id="g12"><path
         id="path14"
         style="fill:#c2b048;fill-opacity:1;fill-rule:nonzero;stroke:none"
         d="M 0,0 V 0 L -1.75,-0.5 -3,-1.25 l -0.75,-1 -0.5,-1 -0.5,-1 V -5 -5.75 l -4.75,-2 -1.75,0.25 L -13,-7 -14.75,-6.25 -14,-8 l 0.5,-0.75 h 0.5 l 1,-0.5 1.25,-0.25 1.25,-0.25 1,0.25 1,0.25 1,0.25 2,1 1.5,1.75 1.25,1.75 1,2.25 z" /></g><g
       transform="translate(42.3662,53.5)"
       id="g16"><path
         id="path18"
         style="fill:#c2b048;fill-opacity:1;fill-rule:nonzero;stroke:none"
         d="M 0,0 V 0 L -3.25,2.5 -5,4.25 l -1.5,1.5 -1,1.5 -0.75,1.5 L -9,10.5 -9.25,12 -9.5,13.5 v 1.75 l 0.25,1.25 0.5,1.25 0.5,1 0.5,1 L -7.25,20 -8,19.75 -8.75,19 -9.5,18 -10,17 l -0.25,-1.25 -0.25,-1.25 -0.25,-1.75 0.25,-1.5 0.25,-1.5 L -9.75,8 -9.25,6.5 -8,4.75 -6.75,3.25 -5,1.5 -1.75,-1 -0.75,-1.75 0.5,-2.25 2.75,-3 5,-3.5 7.25,-3.25 H 9 l 1.5,0.5 1,0.25 1.5,0.75 3.25,1.75 -2.5,-1.25 -1,-0.5 -1,-0.25 -1.5,-0.25 -1.5,-0.25 h -2 L 4.5,-2.25 2.25,-1.5 Z" /></g><g
       transform="translate(64.6162,61.5)"
       id="g20"><path
         id="path22"
         style="fill:#dfce81;fill-opacity:1;fill-rule:nonzero;stroke:none"
         d="M 0,0 V 0 L -0.25,2.25 -0.5,4.25 -1.25,6 -2,7.5 -3,8.5 -4.25,9.25 -5.5,9.75 -7,10 -9,9 -10.25,8 -10.75,7 v -1.25 -1 l -0.25,-1 -0.5,-1 -1,-1 -1.75,-1 L -16.5,0 h -1 -1 l -1.25,0.25 -1,0.5 h -0.5 L -21.75,1.5 -22.5,3.25 -23.25,4 -24,5 l -1,1.5 -0.5,1.75 -1,2 -1,1.25 -1,0.5 h -1 l -0.5,-0.25 -0.5,-1 -0.5,-1 -0.5,-1.25 -0.25,-1.25 V 5.5 l 0.25,-1.5 0.25,-1.5 0.75,-1.75 0.75,-1.5 1,-1.5 1.5,-1.5 1.75,-1.75 3.25,-2.5 2.25,-1.5 2.25,-0.75 2.25,-0.25 h 2 l 1.5,0.25 1.5,0.25 1,0.25 1,0.5 2.5,1.25 2,1.5 2,1.75 0.75,1.25 0.5,1 0.5,1.25 z" /></g><g
       transform="translate(32.6162,66.5)"
       id="g24"><path
         id="path26"
         style="fill:#c2b048;fill-opacity:1;fill-rule:nonzero;stroke:none"
         d="M 0,0 V 0 L 0.25,0.75 1,2 1.5,2.75 2.25,3.5 3,4 4.25,4.25 3.75,3.75 2.5,2.5 1.75,1.5 1.25,0.5 1,-0.75 v -1.5 l 0.25,0.5 0.5,1 1,1 0.75,0.25 0.75,0.25 -0.5,-0.5 -1,-1 -1,-1.75 -0.25,-1 v -1 H 1 L 0.5,-3.5 0.25,-3 0,-2.25 v 1 z" /></g><g
       transform="translate(71.3235,94.5)"
       id="g28"><path
         id="path30"
         style="fill:#c2b048;fill-opacity:1;fill-rule:nonzero;stroke:none"
         d="m 0,0 v 0 l 1,-1.5 1.25,-1 1,-0.5 1,-0.25 h 1 1 H 7 l 3,-4 0.25,-1.75 v -1.75 l -0.5,-1.75 1.75,1.25 0.25,0.5 0.25,0.25 v 1.5 1 l -0.25,1.25 -0.25,1 -0.5,1 L 10.5,-4 9,-2.5 7,-1.25 4.75,-0.5 2.5,0 Z" /></g><g
       transform="translate(92.0735,85)"
       id="g32"><path
         id="path34"
         style="fill:#c2b048;fill-opacity:1;fill-rule:nonzero;stroke:none"
         d="M 0,0 V 0 L -1.75,-3.75 -2.75,-6 -4,-7.75 l -1.25,-1.5 -1.25,-1.25 -1.25,-0.75 -1.5,-0.75 -1.5,-0.5 -1.5,-0.5 h -1.5 -1.25 l -1.25,0.25 -1,0.25 -0.5,0.25 0.75,-0.75 0.75,-0.5 1,-0.25 L -14,-14 h 1.25 1.25 l 1.75,0.5 1.5,0.5 1.5,0.5 1.5,1 1.25,1 1.25,1.5 1.25,1.5 1.25,2.25 1.5,3.75 0.5,1.25 L 2,1 2.25,3.5 2,5.75 1.25,7.75 0.75,9.5 0,10.75 -0.75,11.75 -1.5,13 -4,15.75 -2.25,13.5 -1.75,12.75 -1,11.75 -0.5,10.5 0.25,9 0.75,7.25 1,5 0.75,2.5 Z" /></g><g
       transform="translate(78.5735,104.25)"
       id="g36"><path
         id="path38"
         style="fill:#dfce81;fill-opacity:1;fill-rule:nonzero;stroke:none"
         d="m 0,0 v 0 l -2.25,-0.5 -1.75,-1 -1.5,-1 -1.25,-1 -0.75,-1.25 -0.5,-1.5 v -1.5 l 0.25,-1.5 1.5,-1.5 1.25,-0.75 1,-0.25 h 1 l 1,0.25 1.25,0.25 1,-0.25 1.25,-1 1.5,-1.25 1.25,-2 0.25,-1 0.25,-1 V -19 -20.25 L 4.5,-20.5 4.25,-21 2.5,-22.25 2,-23.25 1.25,-24.5 0,-25.5 -1.25,-26.5 -3,-28 l -1,-1.25 -0.5,-1.25 0.25,-1 0.5,-0.25 1,-0.25 1.25,-0.25 h 1.25 1.5 l 1.5,0.5 1.5,0.5 1.5,0.75 1.25,0.75 1.25,1.25 1.25,1.5 1.25,1.75 1,2.25 1.75,3.75 0.75,2.5 0.25,2.5 -0.25,2.25 -0.5,1.75 -0.75,1.5 -0.5,1.25 -0.75,1 -0.5,0.75 L 9.5,-3.5 7.5,-2 5,-0.5 3.75,0 2.5,0.25 H 1.25 Z" /></g><g
       transform="translate(83.0735,99.75)"
       id="g40"><path
         id="path42"
         style="fill:#e4d799;fill-opacity:1;fill-rule:nonzero;stroke:none"
         d="M 0,0 V 0 L -2.25,0.25 H -3.5 -4.25 l -1,-0.25 -0.5,-0.5 v -0.75 -1 l 1,-1.25 0.75,-0.75 1,-0.5 0.75,-0.25 1,-0.5 1,-0.5 1,-1 1,-1.5 0.75,-1 0.5,-1.25 0.25,-1.5 0.25,-1.5 -0.25,-0.75 -0.5,-0.75 -0.5,-1.25 -1,-1.25 -0.75,-0.75 -0.25,-1 v -0.75 -0.5 L 0.5,-21 1.25,-21.25 2,-21 l 1,0.5 1,0.75 1,1.25 1,1.25 0.75,1.5 0.5,2 0.25,1.5 -0.25,1.75 -0.5,2.75 L 6,-6 l -0.25,0.75 -1.25,2 -1,1.25 -1.25,0.75 -1,0.75 z" /></g><g
       transform="translate(81.8235,72.25)"
       id="g44"><path
         id="path46"
         style="fill:#c2b048;fill-opacity:1;fill-rule:nonzero;stroke:none"
         d="M 0,0 V 0 H -0.75 L -2.25,0.25 -3,0.75 -3.75,1.25 -4.5,2 -5,3 l 0.5,-0.5 1.75,-0.75 1,-0.5 H -0.5 L 0.75,1 2,1.5 H 1.5 L 0.25,2 l -1,0.75 -0.5,0.5 L -1.5,4 -1.25,3.5 0,3 2,2.5 3,2.25 4.25,2.5 4,2.25 3.5,1.25 3,0.75 2.25,0.5 1.25,0.25 Z" /></g><text
       id="text50"
       style="font-variant:normal;font-weight:normal;font-stretch:normal;font-size:21px;font-family:'P22 Daddy O Junkie';-inkscape-font-specification:P22DaddyOJunkie;writing-mode:lr-tb;fill:#000000;fill-opacity:1;fill-rule:nonzero;stroke:none"
       transform="matrix(1,0,0,-1,10.3262,24.5596)"><tspan
         id="tspan48"
         y="0"
         x="0 14.448 32.823002 48.720001 63.398998 79.233002 101.934">CASHEWS</tspan></text>
</g></svg>